<mxfile host="65bd71144e">
    <diagram id="Iq4zE93XNtrWujeVQULn" name="第 1 页">
        <mxGraphModel dx="2382" dy="1393" grid="1" gridSize="10" guides="1" tooltips="1" connect="1" arrows="1" fold="1" page="1" pageScale="1" pageWidth="827" pageHeight="1169" math="0" shadow="0">
            <root>
                <mxCell id="0"/>
                <mxCell id="1" parent="0"/>
                <mxCell id="45" value="" style="rounded=0;whiteSpace=wrap;html=1;strokeColor=default;strokeWidth=1;fontFamily=Helvetica;fontSize=16;fontColor=default;fillColor=default;" vertex="1" parent="1">
                    <mxGeometry x="-120" y="40" width="940" height="770" as="geometry"/>
                </mxCell>
                <mxCell id="44" value="" style="group;strokeWidth=7;" vertex="1" connectable="0" parent="1">
                    <mxGeometry y="200" width="680" height="440" as="geometry"/>
                </mxCell>
                <mxCell id="43" value="" style="rounded=0;whiteSpace=wrap;html=1;strokeColor=default;strokeWidth=1;fontFamily=Helvetica;fontSize=16;fontColor=default;fillColor=default;" vertex="1" parent="44">
                    <mxGeometry x="160" y="80" width="520" height="280" as="geometry"/>
                </mxCell>
                <mxCell id="5" value="&lt;b&gt;&lt;font style=&quot;font-size: 16px;&quot;&gt;FPGA&lt;/font&gt;&lt;/b&gt;" style="text;html=1;align=center;verticalAlign=middle;resizable=0;points=[];autosize=1;strokeColor=none;fillColor=none;fontSize=12;fontFamily=Helvetica;fontColor=default;" vertex="1" parent="44">
                    <mxGeometry x="170" y="90" width="70" height="30" as="geometry"/>
                </mxCell>
                <mxCell id="7" value="" style="endArrow=classic;html=1;fontFamily=Helvetica;fontSize=16;fontColor=default;targetPerimeterSpacing=0;strokeWidth=3;entryX=0;entryY=0.5;entryDx=0;entryDy=0;" edge="1" parent="44" target="9">
                    <mxGeometry width="50" height="50" relative="1" as="geometry">
                        <mxPoint x="120" y="300" as="sourcePoint"/>
                        <mxPoint x="200" y="280" as="targetPoint"/>
                    </mxGeometry>
                </mxCell>
                <mxCell id="9" value="蓝牙串口&lt;br&gt;控制模块" style="rounded=0;whiteSpace=wrap;html=1;strokeColor=default;strokeWidth=1;fontFamily=Helvetica;fontSize=16;fontColor=default;fillColor=default;" vertex="1" parent="44">
                    <mxGeometry x="200" y="280" width="120" height="40" as="geometry"/>
                </mxCell>
                <mxCell id="10" value="密码控制模块" style="whiteSpace=wrap;html=1;fontSize=16;rounded=0;strokeWidth=1;" vertex="1" parent="44">
                    <mxGeometry x="360" y="280" width="120" height="40" as="geometry"/>
                </mxCell>
                <mxCell id="11" value="" style="edgeStyle=none;html=1;strokeWidth=3;fontFamily=Helvetica;fontSize=16;fontColor=default;targetPerimeterSpacing=0;" edge="1" parent="44" source="9" target="10">
                    <mxGeometry relative="1" as="geometry"/>
                </mxCell>
                <mxCell id="12" value="核心状态机" style="whiteSpace=wrap;html=1;fontSize=16;rounded=0;strokeWidth=1;" vertex="1" parent="44">
                    <mxGeometry x="360" y="200" width="120" height="40" as="geometry"/>
                </mxCell>
                <mxCell id="13" value="" style="edgeStyle=none;html=1;strokeWidth=3;fontFamily=Helvetica;fontSize=16;fontColor=default;targetPerimeterSpacing=0;entryX=0.5;entryY=1;entryDx=0;entryDy=0;exitX=0.5;exitY=0;exitDx=0;exitDy=0;" edge="1" parent="44" source="10" target="12">
                    <mxGeometry relative="1" as="geometry"/>
                </mxCell>
                <mxCell id="14" value="密码显示模块" style="whiteSpace=wrap;html=1;fontSize=16;rounded=0;strokeWidth=1;" vertex="1" parent="44">
                    <mxGeometry x="520" y="280" width="120" height="40" as="geometry"/>
                </mxCell>
                <mxCell id="15" value="" style="edgeStyle=none;html=1;strokeWidth=3;fontFamily=Helvetica;fontSize=16;fontColor=default;targetPerimeterSpacing=0;" edge="1" parent="44" source="10" target="14">
                    <mxGeometry relative="1" as="geometry"/>
                </mxCell>
                <mxCell id="18" value="数码管显示" style="whiteSpace=wrap;html=1;fontSize=16;rounded=0;strokeWidth=1;" vertex="1" parent="44">
                    <mxGeometry x="520" y="400" width="120" height="40" as="geometry"/>
                </mxCell>
                <mxCell id="19" value="" style="edgeStyle=none;html=1;strokeWidth=3;fontFamily=Helvetica;fontSize=16;fontColor=default;targetPerimeterSpacing=0;" edge="1" parent="44" source="14" target="18">
                    <mxGeometry relative="1" as="geometry"/>
                </mxCell>
                <mxCell id="20" value="延时状态机" style="whiteSpace=wrap;html=1;fontSize=16;rounded=0;strokeWidth=1;" vertex="1" parent="44">
                    <mxGeometry x="520" y="200" width="120" height="40" as="geometry"/>
                </mxCell>
                <mxCell id="22" value="" style="endArrow=classic;startArrow=classic;html=1;strokeWidth=2;fontFamily=Helvetica;fontSize=16;fontColor=default;targetPerimeterSpacing=0;entryX=0;entryY=0.5;entryDx=0;entryDy=0;exitX=1;exitY=0.5;exitDx=0;exitDy=0;" edge="1" parent="44" source="12" target="20">
                    <mxGeometry width="50" height="50" relative="1" as="geometry">
                        <mxPoint x="360" y="190" as="sourcePoint"/>
                        <mxPoint x="410" y="140" as="targetPoint"/>
                    </mxGeometry>
                </mxCell>
                <mxCell id="23" value="状态输出控制" style="whiteSpace=wrap;html=1;fontSize=16;rounded=0;strokeWidth=1;" vertex="1" parent="44">
                    <mxGeometry x="520" y="120" width="120" height="40" as="geometry"/>
                </mxCell>
                <mxCell id="24" value="" style="edgeStyle=none;html=1;strokeWidth=3;fontFamily=Helvetica;fontSize=16;fontColor=default;endArrow=classic;endFill=1;targetPerimeterSpacing=0;" edge="1" parent="44" source="20" target="23">
                    <mxGeometry relative="1" as="geometry"/>
                </mxCell>
                <mxCell id="25" value="RGB输出&lt;br&gt;流水灯输出" style="whiteSpace=wrap;html=1;fontSize=16;rounded=0;strokeWidth=1;" vertex="1" parent="44">
                    <mxGeometry x="520" width="120" height="40" as="geometry"/>
                </mxCell>
                <mxCell id="26" value="" style="edgeStyle=none;html=1;strokeWidth=3;fontFamily=Helvetica;fontSize=16;fontColor=default;endArrow=classic;endFill=1;targetPerimeterSpacing=0;" edge="1" parent="44" source="23" target="25">
                    <mxGeometry relative="1" as="geometry"/>
                </mxCell>
                <mxCell id="27" value="密码输入" style="rounded=0;whiteSpace=wrap;html=1;strokeColor=default;strokeWidth=1;fontFamily=Helvetica;fontSize=16;fontColor=default;fillColor=default;" vertex="1" parent="44">
                    <mxGeometry y="280" width="120" height="40" as="geometry"/>
                </mxCell>
                <mxCell id="28" value="" style="endArrow=classic;html=1;fontFamily=Helvetica;fontSize=16;fontColor=default;targetPerimeterSpacing=0;strokeWidth=3;entryX=0;entryY=0.5;entryDx=0;entryDy=0;" edge="1" parent="44" target="12">
                    <mxGeometry width="50" height="50" relative="1" as="geometry">
                        <mxPoint x="120" y="220" as="sourcePoint"/>
                        <mxPoint x="200" y="220" as="targetPoint"/>
                        <Array as="points">
                            <mxPoint x="240" y="220"/>
                        </Array>
                    </mxGeometry>
                </mxCell>
                <mxCell id="29" value="操作输入" style="rounded=0;whiteSpace=wrap;html=1;strokeColor=default;strokeWidth=1;fontFamily=Helvetica;fontSize=16;fontColor=default;fillColor=default;" vertex="1" parent="44">
                    <mxGeometry y="200" width="120" height="40" as="geometry"/>
                </mxCell>
                <mxCell id="36" value="OV7670 摄像头" style="rounded=0;whiteSpace=wrap;html=1;strokeColor=default;strokeWidth=1;fontFamily=Helvetica;fontSize=16;fontColor=default;fillColor=default;" vertex="1" parent="44">
                    <mxGeometry y="120" width="120" height="40" as="geometry"/>
                </mxCell>
                <mxCell id="37" value="RAM" style="whiteSpace=wrap;html=1;fontSize=16;rounded=0;strokeWidth=1;" vertex="1" parent="44">
                    <mxGeometry x="200" y="120" width="120" height="40" as="geometry"/>
                </mxCell>
                <mxCell id="38" value="" style="edgeStyle=none;html=1;strokeWidth=3;fontFamily=Helvetica;fontSize=16;fontColor=default;endArrow=classic;endFill=1;targetPerimeterSpacing=0;" edge="1" parent="44" source="36" target="37">
                    <mxGeometry relative="1" as="geometry"/>
                </mxCell>
                <mxCell id="39" value="VGA" style="whiteSpace=wrap;html=1;fontSize=16;rounded=0;strokeWidth=1;" vertex="1" parent="44">
                    <mxGeometry x="360" y="120" width="120" height="40" as="geometry"/>
                </mxCell>
                <mxCell id="40" value="" style="edgeStyle=none;html=1;strokeWidth=3;fontFamily=Helvetica;fontSize=16;fontColor=default;endArrow=classic;endFill=1;targetPerimeterSpacing=0;" edge="1" parent="44" source="37" target="39">
                    <mxGeometry relative="1" as="geometry"/>
                </mxCell>
                <mxCell id="41" value="显示屏" style="whiteSpace=wrap;html=1;fontSize=16;rounded=0;strokeWidth=1;" vertex="1" parent="44">
                    <mxGeometry x="360" width="120" height="40" as="geometry"/>
                </mxCell>
                <mxCell id="42" value="" style="edgeStyle=none;html=1;strokeWidth=3;fontFamily=Helvetica;fontSize=16;fontColor=default;endArrow=classic;endFill=1;targetPerimeterSpacing=0;" edge="1" parent="44" source="39" target="41">
                    <mxGeometry relative="1" as="geometry"/>
                </mxCell>
            </root>
        </mxGraphModel>
    </diagram>
</mxfile>